<mxfile host="app.diagrams.net" modified="2023-02-13T15:27:47.074Z" agent="5.0 (Windows NT 10.0; Win64; x64) AppleWebKit/537.36 (KHTML, like Gecko) Chrome/97.0.4692.71 Safari/537.36" etag="zrVn9eNU2wpc63YOokSe" version="20.8.20" type="github">
  <diagram name="第 1 页" id="cuDGeWOGz2R5-pNaBx6o">
    <mxGraphModel dx="1909" dy="-274" grid="1" gridSize="10" guides="1" tooltips="1" connect="1" arrows="1" fold="1" page="1" pageScale="1" pageWidth="827" pageHeight="1169" math="0" shadow="0">
      <root>
        <mxCell id="0" />
        <mxCell id="1" parent="0" />
        <mxCell id="lqEn4sDh2R0uTmOwmhzk-1" value="" style="rounded=1;whiteSpace=wrap;html=1;comic=1;fontFamily=Comic Sans MS;fontSize=14;fillColor=#f9f7ed;strokeColor=#36393d;" vertex="1" parent="1">
          <mxGeometry x="580" y="1730" width="200" height="77" as="geometry" />
        </mxCell>
        <mxCell id="lqEn4sDh2R0uTmOwmhzk-2" value="" style="rounded=1;whiteSpace=wrap;html=1;comic=1;fontFamily=Comic Sans MS;fontSize=14;fillColor=#f9f7ed;strokeColor=#36393d;" vertex="1" parent="1">
          <mxGeometry x="579.87" y="1613" width="200" height="77" as="geometry" />
        </mxCell>
        <mxCell id="lqEn4sDh2R0uTmOwmhzk-3" value="" style="rounded=1;whiteSpace=wrap;html=1;comic=1;fontFamily=Comic Sans MS;fontSize=14;fillColor=#f9f7ed;strokeColor=#36393d;" vertex="1" parent="1">
          <mxGeometry x="580" y="1431" width="200" height="149" as="geometry" />
        </mxCell>
        <mxCell id="lqEn4sDh2R0uTmOwmhzk-4" value="App" style="text;html=1;align=center;verticalAlign=middle;resizable=0;points=[];autosize=1;strokeColor=none;fillColor=none;fontFamily=Comic Sans MS;fontSize=16;" vertex="1" parent="1">
          <mxGeometry x="105" y="1172" width="50" height="30" as="geometry" />
        </mxCell>
        <mxCell id="lqEn4sDh2R0uTmOwmhzk-5" value="" style="rounded=1;whiteSpace=wrap;html=1;comic=1;fontFamily=Comic Sans MS;fillColor=#ffe6cc;strokeColor=#d79b00;" vertex="1" parent="1">
          <mxGeometry x="19" y="1210" width="222" height="299" as="geometry" />
        </mxCell>
        <mxCell id="lqEn4sDh2R0uTmOwmhzk-6" style="edgeStyle=orthogonalEdgeStyle;rounded=0;orthogonalLoop=1;jettySize=auto;html=1;exitX=1;exitY=0.5;exitDx=0;exitDy=0;entryX=0;entryY=0.5;entryDx=0;entryDy=0;fontFamily=Comic Sans MS;fontSize=14;endArrow=classic;endFill=1;" edge="1" parent="1" source="lqEn4sDh2R0uTmOwmhzk-7" target="lqEn4sDh2R0uTmOwmhzk-13">
          <mxGeometry relative="1" as="geometry">
            <Array as="points">
              <mxPoint x="320" y="1266" />
              <mxPoint x="320" y="1226" />
            </Array>
          </mxGeometry>
        </mxCell>
        <mxCell id="lqEn4sDh2R0uTmOwmhzk-7" value="tts = new TextToSpeech(mcontext, TextToSpeech.&lt;br&gt;on&lt;i&gt;InitListener{@override onInit}&lt;/i&gt;)" style="rounded=1;whiteSpace=wrap;html=1;comic=1;fontFamily=Comic Sans MS;align=left;" vertex="1" parent="1">
          <mxGeometry x="54" y="1228" width="153" height="76" as="geometry" />
        </mxCell>
        <mxCell id="lqEn4sDh2R0uTmOwmhzk-8" value="tts.setOnUtteranceProgressListener&lt;br&gt;(object:UtteranceProgressListener&lt;br&gt;{onAudioAvailable});" style="rounded=1;whiteSpace=wrap;html=1;comic=1;fontFamily=Comic Sans MS;align=left;" vertex="1" parent="1">
          <mxGeometry x="25" y="1325" width="211" height="76" as="geometry" />
        </mxCell>
        <mxCell id="lqEn4sDh2R0uTmOwmhzk-9" style="edgeStyle=orthogonalEdgeStyle;rounded=0;orthogonalLoop=1;jettySize=auto;html=1;exitX=1;exitY=0.5;exitDx=0;exitDy=0;entryX=0;entryY=0.5;entryDx=0;entryDy=0;fontFamily=Comic Sans MS;fontSize=14;endArrow=classic;endFill=1;" edge="1" parent="1" source="lqEn4sDh2R0uTmOwmhzk-10" target="lqEn4sDh2R0uTmOwmhzk-29">
          <mxGeometry relative="1" as="geometry">
            <Array as="points">
              <mxPoint x="300" y="1453" />
              <mxPoint x="300" y="1666" />
            </Array>
          </mxGeometry>
        </mxCell>
        <mxCell id="lqEn4sDh2R0uTmOwmhzk-10" value="tts.setPitch(1.0f);&lt;br&gt;tts.speak(&quot;xxx&quot;, &lt;br&gt;TextToSpeech.QUEUE_FLUSH,&lt;br&gt;null);" style="rounded=1;whiteSpace=wrap;html=1;comic=1;fontFamily=Comic Sans MS;align=left;" vertex="1" parent="1">
          <mxGeometry x="40.25" y="1415" width="187.5" height="76" as="geometry" />
        </mxCell>
        <mxCell id="lqEn4sDh2R0uTmOwmhzk-11" value="TextToSpeech" style="text;html=1;align=center;verticalAlign=middle;resizable=0;points=[];autosize=1;strokeColor=none;fillColor=none;fontFamily=Comic Sans MS;fontSize=16;" vertex="1" parent="1">
          <mxGeometry x="367.5" y="1172" width="130" height="30" as="geometry" />
        </mxCell>
        <mxCell id="lqEn4sDh2R0uTmOwmhzk-12" style="edgeStyle=orthogonalEdgeStyle;rounded=0;orthogonalLoop=1;jettySize=auto;html=1;exitX=0.5;exitY=1;exitDx=0;exitDy=0;entryX=0.5;entryY=0;entryDx=0;entryDy=0;fontFamily=Comic Sans MS;fontSize=14;endArrow=classic;endFill=1;" edge="1" parent="1" source="lqEn4sDh2R0uTmOwmhzk-13" target="lqEn4sDh2R0uTmOwmhzk-15">
          <mxGeometry relative="1" as="geometry" />
        </mxCell>
        <mxCell id="lqEn4sDh2R0uTmOwmhzk-13" value="TextToSpeech" style="rounded=1;whiteSpace=wrap;html=1;comic=1;fontFamily=Comic Sans MS;fillColor=#e1d5e7;strokeColor=#9673a6;fontSize=14;" vertex="1" parent="1">
          <mxGeometry x="350.5" y="1210" width="149.5" height="32" as="geometry" />
        </mxCell>
        <mxCell id="lqEn4sDh2R0uTmOwmhzk-14" style="edgeStyle=orthogonalEdgeStyle;rounded=0;orthogonalLoop=1;jettySize=auto;html=1;exitX=0.5;exitY=1;exitDx=0;exitDy=0;entryX=0.5;entryY=0;entryDx=0;entryDy=0;fontFamily=Comic Sans MS;fontSize=14;endArrow=classic;endFill=1;" edge="1" parent="1" source="lqEn4sDh2R0uTmOwmhzk-15" target="lqEn4sDh2R0uTmOwmhzk-17">
          <mxGeometry relative="1" as="geometry" />
        </mxCell>
        <mxCell id="lqEn4sDh2R0uTmOwmhzk-15" value="initTts" style="rounded=1;whiteSpace=wrap;html=1;comic=1;fontFamily=Comic Sans MS;fillColor=#e1d5e7;strokeColor=#9673a6;fontSize=14;" vertex="1" parent="1">
          <mxGeometry x="350.5" y="1260" width="149.5" height="32" as="geometry" />
        </mxCell>
        <mxCell id="lqEn4sDh2R0uTmOwmhzk-16" style="edgeStyle=orthogonalEdgeStyle;rounded=0;orthogonalLoop=1;jettySize=auto;html=1;exitX=0.5;exitY=1;exitDx=0;exitDy=0;entryX=0.5;entryY=0;entryDx=0;entryDy=0;fontFamily=Comic Sans MS;fontSize=14;endArrow=classic;endFill=1;" edge="1" parent="1" source="lqEn4sDh2R0uTmOwmhzk-17" target="lqEn4sDh2R0uTmOwmhzk-19">
          <mxGeometry relative="1" as="geometry" />
        </mxCell>
        <mxCell id="lqEn4sDh2R0uTmOwmhzk-17" value="connectToEngine" style="rounded=1;whiteSpace=wrap;html=1;comic=1;fontFamily=Comic Sans MS;fillColor=#e1d5e7;strokeColor=#9673a6;fontSize=14;" vertex="1" parent="1">
          <mxGeometry x="350.5" y="1310" width="149.5" height="32" as="geometry" />
        </mxCell>
        <mxCell id="lqEn4sDh2R0uTmOwmhzk-18" style="edgeStyle=orthogonalEdgeStyle;rounded=0;orthogonalLoop=1;jettySize=auto;html=1;exitX=0.5;exitY=1;exitDx=0;exitDy=0;entryX=0.5;entryY=0;entryDx=0;entryDy=0;fontFamily=Comic Sans MS;fontSize=14;endArrow=classic;endFill=1;" edge="1" parent="1" source="lqEn4sDh2R0uTmOwmhzk-19" target="lqEn4sDh2R0uTmOwmhzk-21">
          <mxGeometry relative="1" as="geometry" />
        </mxCell>
        <mxCell id="lqEn4sDh2R0uTmOwmhzk-19" value="&lt;font style=&quot;font-size: 11px;&quot;&gt;mContext.bindService&lt;/font&gt;" style="rounded=1;whiteSpace=wrap;html=1;comic=1;fontFamily=Comic Sans MS;fillColor=#e1d5e7;strokeColor=#9673a6;" vertex="1" parent="1">
          <mxGeometry x="350.5" y="1360" width="149.5" height="32" as="geometry" />
        </mxCell>
        <mxCell id="lqEn4sDh2R0uTmOwmhzk-20" style="edgeStyle=orthogonalEdgeStyle;rounded=0;orthogonalLoop=1;jettySize=auto;html=1;exitX=0.5;exitY=1;exitDx=0;exitDy=0;entryX=0.5;entryY=0;entryDx=0;entryDy=0;fontFamily=Comic Sans MS;fontSize=14;endArrow=classic;endFill=1;" edge="1" parent="1" source="lqEn4sDh2R0uTmOwmhzk-21" target="lqEn4sDh2R0uTmOwmhzk-23">
          <mxGeometry relative="1" as="geometry" />
        </mxCell>
        <mxCell id="lqEn4sDh2R0uTmOwmhzk-21" value="&lt;font style=&quot;font-size: 11px;&quot;&gt;Connection#onServiceConnected&lt;/font&gt;" style="rounded=1;whiteSpace=wrap;html=1;comic=1;fontFamily=Comic Sans MS;fillColor=#e1d5e7;strokeColor=#9673a6;" vertex="1" parent="1">
          <mxGeometry x="330" y="1415" width="189.5" height="32" as="geometry" />
        </mxCell>
        <mxCell id="lqEn4sDh2R0uTmOwmhzk-22" style="edgeStyle=orthogonalEdgeStyle;rounded=0;orthogonalLoop=1;jettySize=auto;html=1;exitX=0.5;exitY=1;exitDx=0;exitDy=0;entryX=0.5;entryY=0;entryDx=0;entryDy=0;fontFamily=Comic Sans MS;fontSize=14;endArrow=classic;endFill=1;" edge="1" parent="1" source="lqEn4sDh2R0uTmOwmhzk-23" target="lqEn4sDh2R0uTmOwmhzk-25">
          <mxGeometry relative="1" as="geometry" />
        </mxCell>
        <mxCell id="lqEn4sDh2R0uTmOwmhzk-23" value="&lt;font style=&quot;font-size: 11px;&quot;&gt;setupConnectionAsyncTask&lt;/font&gt;" style="rounded=1;whiteSpace=wrap;html=1;comic=1;fontFamily=Comic Sans MS;fillColor=#e1d5e7;strokeColor=#9673a6;" vertex="1" parent="1">
          <mxGeometry x="350" y="1470" width="149.5" height="32" as="geometry" />
        </mxCell>
        <mxCell id="lqEn4sDh2R0uTmOwmhzk-24" style="edgeStyle=orthogonalEdgeStyle;rounded=0;orthogonalLoop=1;jettySize=auto;html=1;exitX=0.5;exitY=1;exitDx=0;exitDy=0;entryX=0.5;entryY=0;entryDx=0;entryDy=0;fontFamily=Comic Sans MS;fontSize=14;endArrow=classic;endFill=1;" edge="1" parent="1" source="lqEn4sDh2R0uTmOwmhzk-25" target="lqEn4sDh2R0uTmOwmhzk-27">
          <mxGeometry relative="1" as="geometry" />
        </mxCell>
        <mxCell id="lqEn4sDh2R0uTmOwmhzk-25" value="dispatchOnInit" style="rounded=1;whiteSpace=wrap;html=1;comic=1;fontFamily=Comic Sans MS;fillColor=#e1d5e7;strokeColor=#9673a6;fontSize=14;" vertex="1" parent="1">
          <mxGeometry x="350.5" y="1530" width="149.5" height="32" as="geometry" />
        </mxCell>
        <mxCell id="lqEn4sDh2R0uTmOwmhzk-26" style="edgeStyle=orthogonalEdgeStyle;rounded=0;orthogonalLoop=1;jettySize=auto;html=1;exitX=0;exitY=0.5;exitDx=0;exitDy=0;entryX=1;entryY=0.75;entryDx=0;entryDy=0;fontFamily=Comic Sans MS;fontSize=14;endArrow=classic;endFill=1;" edge="1" parent="1" source="lqEn4sDh2R0uTmOwmhzk-27" target="lqEn4sDh2R0uTmOwmhzk-7">
          <mxGeometry relative="1" as="geometry">
            <Array as="points">
              <mxPoint x="320" y="1606" />
              <mxPoint x="320" y="1285" />
            </Array>
          </mxGeometry>
        </mxCell>
        <mxCell id="lqEn4sDh2R0uTmOwmhzk-27" value="&lt;font style=&quot;font-size: 11px;&quot;&gt;mInitListener.onInit&lt;/font&gt;" style="rounded=1;whiteSpace=wrap;html=1;comic=1;fontFamily=Comic Sans MS;fillColor=#e1d5e7;strokeColor=#9673a6;" vertex="1" parent="1">
          <mxGeometry x="350.5" y="1590" width="149.5" height="32" as="geometry" />
        </mxCell>
        <mxCell id="lqEn4sDh2R0uTmOwmhzk-28" style="edgeStyle=orthogonalEdgeStyle;rounded=0;orthogonalLoop=1;jettySize=auto;html=1;exitX=0.5;exitY=1;exitDx=0;exitDy=0;entryX=0.5;entryY=0;entryDx=0;entryDy=0;fontFamily=Comic Sans MS;fontSize=14;endArrow=classic;endFill=1;" edge="1" parent="1" source="lqEn4sDh2R0uTmOwmhzk-29" target="lqEn4sDh2R0uTmOwmhzk-31">
          <mxGeometry relative="1" as="geometry" />
        </mxCell>
        <mxCell id="lqEn4sDh2R0uTmOwmhzk-29" value="speak" style="rounded=1;whiteSpace=wrap;html=1;comic=1;fontFamily=Comic Sans MS;fillColor=#e1d5e7;strokeColor=#9673a6;fontSize=14;" vertex="1" parent="1">
          <mxGeometry x="350.5" y="1650" width="149.5" height="32" as="geometry" />
        </mxCell>
        <mxCell id="lqEn4sDh2R0uTmOwmhzk-30" style="edgeStyle=orthogonalEdgeStyle;rounded=0;orthogonalLoop=1;jettySize=auto;html=1;exitX=0.5;exitY=1;exitDx=0;exitDy=0;entryX=0.5;entryY=0;entryDx=0;entryDy=0;fontFamily=Comic Sans MS;fontSize=14;endArrow=classic;endFill=1;" edge="1" parent="1" source="lqEn4sDh2R0uTmOwmhzk-31" target="lqEn4sDh2R0uTmOwmhzk-34">
          <mxGeometry relative="1" as="geometry" />
        </mxCell>
        <mxCell id="lqEn4sDh2R0uTmOwmhzk-31" value="runAction" style="rounded=1;whiteSpace=wrap;html=1;comic=1;fontFamily=Comic Sans MS;fillColor=#e1d5e7;strokeColor=#9673a6;fontSize=14;" vertex="1" parent="1">
          <mxGeometry x="350.5" y="1710" width="149.5" height="32" as="geometry" />
        </mxCell>
        <mxCell id="lqEn4sDh2R0uTmOwmhzk-32" style="edgeStyle=orthogonalEdgeStyle;rounded=0;orthogonalLoop=1;jettySize=auto;html=1;exitX=0.5;exitY=1;exitDx=0;exitDy=0;entryX=0.5;entryY=0;entryDx=0;entryDy=0;fontFamily=Comic Sans MS;fontSize=14;endArrow=classic;endFill=1;" edge="1" parent="1" source="lqEn4sDh2R0uTmOwmhzk-34" target="lqEn4sDh2R0uTmOwmhzk-35">
          <mxGeometry relative="1" as="geometry">
            <Array as="points">
              <mxPoint x="425" y="1810" />
              <mxPoint x="355" y="1810" />
            </Array>
          </mxGeometry>
        </mxCell>
        <mxCell id="lqEn4sDh2R0uTmOwmhzk-33" style="edgeStyle=orthogonalEdgeStyle;rounded=0;orthogonalLoop=1;jettySize=auto;html=1;exitX=0.5;exitY=1;exitDx=0;exitDy=0;entryX=0.5;entryY=0;entryDx=0;entryDy=0;fontFamily=Comic Sans MS;fontSize=14;endArrow=classic;endFill=1;" edge="1" parent="1" source="lqEn4sDh2R0uTmOwmhzk-34" target="lqEn4sDh2R0uTmOwmhzk-37">
          <mxGeometry relative="1" as="geometry">
            <Array as="points">
              <mxPoint x="425" y="1810" />
              <mxPoint x="500" y="1810" />
            </Array>
          </mxGeometry>
        </mxCell>
        <mxCell id="lqEn4sDh2R0uTmOwmhzk-34" value="action.run" style="rounded=1;whiteSpace=wrap;html=1;comic=1;fontFamily=Comic Sans MS;fillColor=#e1d5e7;strokeColor=#9673a6;fontSize=14;" vertex="1" parent="1">
          <mxGeometry x="350.5" y="1770" width="149.5" height="32" as="geometry" />
        </mxCell>
        <mxCell id="lqEn4sDh2R0uTmOwmhzk-35" value="&lt;font style=&quot;font-size: 11px;&quot;&gt;service.playAudio&lt;/font&gt;" style="rounded=1;whiteSpace=wrap;html=1;comic=1;fontFamily=Comic Sans MS;fillColor=#e1d5e7;strokeColor=#9673a6;" vertex="1" parent="1">
          <mxGeometry x="300" y="1830" width="110" height="32" as="geometry" />
        </mxCell>
        <mxCell id="lqEn4sDh2R0uTmOwmhzk-36" style="edgeStyle=orthogonalEdgeStyle;rounded=0;orthogonalLoop=1;jettySize=auto;html=1;exitX=1;exitY=0.5;exitDx=0;exitDy=0;entryX=0;entryY=0.5;entryDx=0;entryDy=0;fontFamily=Comic Sans MS;fontSize=14;endArrow=classic;endFill=1;" edge="1" parent="1" source="lqEn4sDh2R0uTmOwmhzk-37" target="lqEn4sDh2R0uTmOwmhzk-43">
          <mxGeometry relative="1" as="geometry">
            <Array as="points">
              <mxPoint x="560" y="1846" />
              <mxPoint x="560" y="1230" />
            </Array>
          </mxGeometry>
        </mxCell>
        <mxCell id="lqEn4sDh2R0uTmOwmhzk-37" value="&lt;font style=&quot;font-size: 11px;&quot;&gt;service.speak&lt;/font&gt;" style="rounded=1;whiteSpace=wrap;html=1;comic=1;fontFamily=Comic Sans MS;fillColor=#e1d5e7;strokeColor=#9673a6;" vertex="1" parent="1">
          <mxGeometry x="450.5" y="1830" width="99.5" height="32" as="geometry" />
        </mxCell>
        <mxCell id="lqEn4sDh2R0uTmOwmhzk-38" style="edgeStyle=orthogonalEdgeStyle;rounded=0;orthogonalLoop=1;jettySize=auto;html=1;exitX=0.5;exitY=1;exitDx=0;exitDy=0;entryX=0.5;entryY=0;entryDx=0;entryDy=0;fontFamily=Comic Sans MS;fontSize=14;endArrow=classic;endFill=1;" edge="1" parent="1" source="lqEn4sDh2R0uTmOwmhzk-39" target="lqEn4sDh2R0uTmOwmhzk-40">
          <mxGeometry relative="1" as="geometry" />
        </mxCell>
        <mxCell id="lqEn4sDh2R0uTmOwmhzk-39" value="&lt;font style=&quot;font-size: 11px;&quot;&gt;new ITextToSpeechCallback.stub(){@onAudioAvailable}&lt;/font&gt;" style="rounded=1;whiteSpace=wrap;html=1;comic=1;fontFamily=Comic Sans MS;fillColor=#e1d5e7;strokeColor=#9673a6;fontSize=14;" vertex="1" parent="1">
          <mxGeometry x="335.5" y="1890" width="189.5" height="50" as="geometry" />
        </mxCell>
        <mxCell id="lqEn4sDh2R0uTmOwmhzk-40" value="&lt;font style=&quot;font-size: 11px;&quot;&gt;mUtteranceProgressListener&lt;br&gt;.onAudioAvailable&lt;/font&gt;" style="rounded=1;whiteSpace=wrap;html=1;comic=1;fontFamily=Comic Sans MS;fillColor=#e1d5e7;strokeColor=#9673a6;fontSize=14;" vertex="1" parent="1">
          <mxGeometry x="335.5" y="1970" width="189.5" height="40" as="geometry" />
        </mxCell>
        <mxCell id="lqEn4sDh2R0uTmOwmhzk-41" value="TextToSpeechService" style="text;html=1;align=center;verticalAlign=middle;resizable=0;points=[];autosize=1;strokeColor=none;fillColor=none;fontFamily=Comic Sans MS;fontSize=16;" vertex="1" parent="1">
          <mxGeometry x="590" y="1172" width="190" height="30" as="geometry" />
        </mxCell>
        <mxCell id="lqEn4sDh2R0uTmOwmhzk-42" style="edgeStyle=orthogonalEdgeStyle;rounded=0;orthogonalLoop=1;jettySize=auto;html=1;exitX=0.5;exitY=1;exitDx=0;exitDy=0;fontFamily=Comic Sans MS;fontSize=14;endArrow=classic;endFill=1;" edge="1" parent="1" source="lqEn4sDh2R0uTmOwmhzk-43">
          <mxGeometry relative="1" as="geometry">
            <mxPoint x="684.9655172413793" y="1270" as="targetPoint" />
          </mxGeometry>
        </mxCell>
        <mxCell id="lqEn4sDh2R0uTmOwmhzk-43" value="&lt;font style=&quot;font-size: 12px;&quot;&gt;new ITextToSpeechService&lt;br&gt;.stub(){@speak}&lt;/font&gt;" style="rounded=1;whiteSpace=wrap;html=1;comic=1;fontFamily=Comic Sans MS;fillColor=#b0e3e6;strokeColor=#0e8088;fontSize=14;" vertex="1" parent="1">
          <mxGeometry x="605.13" y="1210" width="159.75" height="40" as="geometry" />
        </mxCell>
        <mxCell id="lqEn4sDh2R0uTmOwmhzk-44" style="edgeStyle=orthogonalEdgeStyle;rounded=0;orthogonalLoop=1;jettySize=auto;html=1;exitX=0.5;exitY=1;exitDx=0;exitDy=0;entryX=0.5;entryY=0;entryDx=0;entryDy=0;fontFamily=Comic Sans MS;fontSize=14;endArrow=classic;endFill=1;" edge="1" parent="1" source="lqEn4sDh2R0uTmOwmhzk-45" target="lqEn4sDh2R0uTmOwmhzk-47">
          <mxGeometry relative="1" as="geometry" />
        </mxCell>
        <mxCell id="lqEn4sDh2R0uTmOwmhzk-45" value="&lt;span style=&quot;font-size: 12px;&quot;&gt;mSynthHandler&lt;br&gt;.enqueueSpeechItem&lt;/span&gt;" style="rounded=1;whiteSpace=wrap;html=1;comic=1;fontFamily=Comic Sans MS;fillColor=#b0e3e6;strokeColor=#0e8088;fontSize=14;" vertex="1" parent="1">
          <mxGeometry x="605.13" y="1272" width="159.75" height="38" as="geometry" />
        </mxCell>
        <mxCell id="lqEn4sDh2R0uTmOwmhzk-46" style="edgeStyle=orthogonalEdgeStyle;rounded=0;orthogonalLoop=1;jettySize=auto;html=1;exitX=0.5;exitY=1;exitDx=0;exitDy=0;entryX=0.5;entryY=0;entryDx=0;entryDy=0;fontFamily=Comic Sans MS;fontSize=14;endArrow=classic;endFill=1;" edge="1" parent="1" source="lqEn4sDh2R0uTmOwmhzk-47" target="lqEn4sDh2R0uTmOwmhzk-49">
          <mxGeometry relative="1" as="geometry" />
        </mxCell>
        <mxCell id="lqEn4sDh2R0uTmOwmhzk-47" value="&lt;font style=&quot;font-size: 14px;&quot;&gt;sendMessage&lt;/font&gt;" style="rounded=1;whiteSpace=wrap;html=1;comic=1;fontFamily=Comic Sans MS;fillColor=#b0e3e6;strokeColor=#0e8088;fontSize=14;" vertex="1" parent="1">
          <mxGeometry x="605.13" y="1330" width="159.75" height="30" as="geometry" />
        </mxCell>
        <mxCell id="lqEn4sDh2R0uTmOwmhzk-48" style="edgeStyle=orthogonalEdgeStyle;rounded=0;orthogonalLoop=1;jettySize=auto;html=1;exitX=0.5;exitY=1;exitDx=0;exitDy=0;entryX=0.525;entryY=-0.007;entryDx=0;entryDy=0;entryPerimeter=0;fontFamily=Comic Sans MS;fontSize=14;endArrow=classic;endFill=1;" edge="1" parent="1" source="lqEn4sDh2R0uTmOwmhzk-49" target="lqEn4sDh2R0uTmOwmhzk-3">
          <mxGeometry relative="1" as="geometry" />
        </mxCell>
        <mxCell id="lqEn4sDh2R0uTmOwmhzk-49" value="&lt;font style=&quot;font-size: 14px;&quot;&gt;speechItem.play&lt;/font&gt;" style="rounded=1;whiteSpace=wrap;html=1;comic=1;fontFamily=Comic Sans MS;fillColor=#b0e3e6;strokeColor=#0e8088;fontSize=14;" vertex="1" parent="1">
          <mxGeometry x="605.13" y="1380" width="159.75" height="28" as="geometry" />
        </mxCell>
        <mxCell id="lqEn4sDh2R0uTmOwmhzk-50" value="SynthesisSpeechItem" style="text;html=1;align=center;verticalAlign=middle;resizable=0;points=[];autosize=1;strokeColor=none;fillColor=none;fontFamily=Comic Sans MS;fontSize=16;" vertex="1" parent="1">
          <mxGeometry x="590" y="1440" width="190" height="30" as="geometry" />
        </mxCell>
        <mxCell id="lqEn4sDh2R0uTmOwmhzk-51" style="edgeStyle=orthogonalEdgeStyle;rounded=0;orthogonalLoop=1;jettySize=auto;html=1;exitX=0.5;exitY=1;exitDx=0;exitDy=0;entryX=0.5;entryY=0;entryDx=0;entryDy=0;fontFamily=Comic Sans MS;fontSize=14;endArrow=classic;endFill=1;" edge="1" parent="1" source="lqEn4sDh2R0uTmOwmhzk-52" target="lqEn4sDh2R0uTmOwmhzk-56">
          <mxGeometry relative="1" as="geometry" />
        </mxCell>
        <mxCell id="lqEn4sDh2R0uTmOwmhzk-52" value="&lt;font style=&quot;font-size: 14px;&quot;&gt;playImpl&lt;/font&gt;" style="rounded=1;whiteSpace=wrap;html=1;comic=1;fontFamily=Comic Sans MS;fillColor=#b0e3e6;strokeColor=#0e8088;fontSize=14;" vertex="1" parent="1">
          <mxGeometry x="600" y="1479" width="159.75" height="30" as="geometry" />
        </mxCell>
        <mxCell id="lqEn4sDh2R0uTmOwmhzk-53" style="edgeStyle=orthogonalEdgeStyle;rounded=0;orthogonalLoop=1;jettySize=auto;html=1;exitX=1;exitY=0.5;exitDx=0;exitDy=0;fontFamily=Comic Sans MS;fontSize=12;endArrow=classic;endFill=1;" edge="1" parent="1" source="lqEn4sDh2R0uTmOwmhzk-56">
          <mxGeometry relative="1" as="geometry">
            <mxPoint x="819.9999999999998" y="1550.9655172413793" as="targetPoint" />
          </mxGeometry>
        </mxCell>
        <mxCell id="lqEn4sDh2R0uTmOwmhzk-54" style="edgeStyle=orthogonalEdgeStyle;rounded=0;orthogonalLoop=1;jettySize=auto;html=1;exitX=1;exitY=0.25;exitDx=0;exitDy=0;fontFamily=Comic Sans MS;fontSize=14;endArrow=classic;endFill=1;entryX=-0.024;entryY=0.437;entryDx=0;entryDy=0;entryPerimeter=0;" edge="1" parent="1" source="lqEn4sDh2R0uTmOwmhzk-56" target="lqEn4sDh2R0uTmOwmhzk-58">
          <mxGeometry relative="1" as="geometry">
            <Array as="points">
              <mxPoint x="810" y="1541" />
              <mxPoint x="810" y="1185" />
            </Array>
          </mxGeometry>
        </mxCell>
        <mxCell id="lqEn4sDh2R0uTmOwmhzk-55" value="设置回调" style="edgeLabel;html=1;align=center;verticalAlign=middle;resizable=0;points=[];fontSize=14;fontFamily=Comic Sans MS;" vertex="1" connectable="0" parent="lqEn4sDh2R0uTmOwmhzk-54">
          <mxGeometry x="0.1043" y="1" relative="1" as="geometry">
            <mxPoint y="-1" as="offset" />
          </mxGeometry>
        </mxCell>
        <mxCell id="lqEn4sDh2R0uTmOwmhzk-56" value="&lt;font style=&quot;font-size: 12px;&quot;&gt;TextToSpeechService.this&lt;br&gt;.onSynthesizeText&lt;/font&gt;" style="rounded=1;whiteSpace=wrap;html=1;comic=1;fontFamily=Comic Sans MS;fillColor=#b0e3e6;strokeColor=#0e8088;fontSize=14;" vertex="1" parent="1">
          <mxGeometry x="600" y="1532" width="159.75" height="38" as="geometry" />
        </mxCell>
        <mxCell id="lqEn4sDh2R0uTmOwmhzk-57" value="最重要的实现，一般产商实现&lt;br&gt;(可参照RobotSpeakTtsService)" style="text;html=1;align=center;verticalAlign=middle;resizable=0;points=[];autosize=1;strokeColor=none;fillColor=none;fontSize=12;fontFamily=Comic Sans MS;" vertex="1" parent="1">
          <mxGeometry x="769.75" y="1550" width="200" height="40" as="geometry" />
        </mxCell>
        <mxCell id="lqEn4sDh2R0uTmOwmhzk-58" value="PlaybackSynthesisCallback" style="text;html=1;align=center;verticalAlign=middle;resizable=0;points=[];autosize=1;strokeColor=none;fillColor=none;fontFamily=Comic Sans MS;fontSize=16;" vertex="1" parent="1">
          <mxGeometry x="855" y="1172" width="220" height="30" as="geometry" />
        </mxCell>
        <mxCell id="lqEn4sDh2R0uTmOwmhzk-59" value="" style="shape=table;startSize=0;container=1;collapsible=0;childLayout=tableLayout;rounded=0;comic=1;fontFamily=Comic Sans MS;fontSize=12;" vertex="1" parent="1">
          <mxGeometry x="910" y="1205" width="100" height="105" as="geometry" />
        </mxCell>
        <mxCell id="lqEn4sDh2R0uTmOwmhzk-60" value="" style="shape=tableRow;horizontal=0;startSize=0;swimlaneHead=0;swimlaneBody=0;strokeColor=inherit;top=0;left=0;bottom=0;right=0;collapsible=0;dropTarget=0;fillColor=none;points=[[0,0.5],[1,0.5]];portConstraint=eastwest;rounded=0;comic=1;fontFamily=Comic Sans MS;fontSize=12;" vertex="1" parent="lqEn4sDh2R0uTmOwmhzk-59">
          <mxGeometry width="100" height="35" as="geometry" />
        </mxCell>
        <mxCell id="lqEn4sDh2R0uTmOwmhzk-61" value="&lt;font style=&quot;font-size: 14px;&quot;&gt;1 start&lt;/font&gt;" style="shape=partialRectangle;html=1;whiteSpace=wrap;connectable=0;strokeColor=#36393d;overflow=hidden;fillColor=#eeeeee;top=0;left=0;bottom=0;right=0;pointerEvents=1;rounded=0;comic=1;fontFamily=Comic Sans MS;fontSize=12;align=left;" vertex="1" parent="lqEn4sDh2R0uTmOwmhzk-60">
          <mxGeometry width="100" height="35" as="geometry">
            <mxRectangle width="100" height="35" as="alternateBounds" />
          </mxGeometry>
        </mxCell>
        <mxCell id="lqEn4sDh2R0uTmOwmhzk-62" value="" style="shape=tableRow;horizontal=0;startSize=0;swimlaneHead=0;swimlaneBody=0;strokeColor=inherit;top=0;left=0;bottom=0;right=0;collapsible=0;dropTarget=0;fillColor=none;points=[[0,0.5],[1,0.5]];portConstraint=eastwest;rounded=0;comic=1;fontFamily=Comic Sans MS;fontSize=12;" vertex="1" parent="lqEn4sDh2R0uTmOwmhzk-59">
          <mxGeometry y="35" width="100" height="35" as="geometry" />
        </mxCell>
        <mxCell id="lqEn4sDh2R0uTmOwmhzk-63" value="2 audioAvailable" style="shape=partialRectangle;html=1;whiteSpace=wrap;connectable=0;strokeColor=#36393d;overflow=hidden;fillColor=#eeeeee;top=0;left=0;bottom=0;right=0;pointerEvents=1;rounded=0;comic=1;fontFamily=Comic Sans MS;fontSize=12;align=left;" vertex="1" parent="lqEn4sDh2R0uTmOwmhzk-62">
          <mxGeometry width="100" height="35" as="geometry">
            <mxRectangle width="100" height="35" as="alternateBounds" />
          </mxGeometry>
        </mxCell>
        <mxCell id="lqEn4sDh2R0uTmOwmhzk-64" value="" style="shape=tableRow;horizontal=0;startSize=0;swimlaneHead=0;swimlaneBody=0;strokeColor=inherit;top=0;left=0;bottom=0;right=0;collapsible=0;dropTarget=0;fillColor=none;points=[[0,0.5],[1,0.5]];portConstraint=eastwest;rounded=0;comic=1;fontFamily=Comic Sans MS;fontSize=12;" vertex="1" parent="lqEn4sDh2R0uTmOwmhzk-59">
          <mxGeometry y="70" width="100" height="35" as="geometry" />
        </mxCell>
        <mxCell id="lqEn4sDh2R0uTmOwmhzk-65" value="&lt;font style=&quot;font-size: 14px;&quot;&gt;3 done&lt;/font&gt;" style="shape=partialRectangle;html=1;whiteSpace=wrap;connectable=0;strokeColor=#36393d;overflow=hidden;fillColor=#eeeeee;top=0;left=0;bottom=0;right=0;pointerEvents=1;rounded=0;comic=1;fontFamily=Comic Sans MS;fontSize=12;align=left;" vertex="1" parent="lqEn4sDh2R0uTmOwmhzk-64">
          <mxGeometry width="100" height="35" as="geometry">
            <mxRectangle width="100" height="35" as="alternateBounds" />
          </mxGeometry>
        </mxCell>
        <mxCell id="lqEn4sDh2R0uTmOwmhzk-66" style="edgeStyle=orthogonalEdgeStyle;rounded=0;orthogonalLoop=1;jettySize=auto;html=1;exitX=0.5;exitY=1;exitDx=0;exitDy=0;entryX=0.5;entryY=0;entryDx=0;entryDy=0;fontFamily=Comic Sans MS;fontSize=14;endArrow=classic;endFill=1;" edge="1" parent="1" source="lqEn4sDh2R0uTmOwmhzk-67" target="lqEn4sDh2R0uTmOwmhzk-68">
          <mxGeometry relative="1" as="geometry" />
        </mxCell>
        <mxCell id="lqEn4sDh2R0uTmOwmhzk-67" value="&lt;font style=&quot;font-size: 12px;&quot;&gt;mDispatcher&lt;br&gt;.dispatchOnAudioAvailable&lt;/font&gt;" style="rounded=1;whiteSpace=wrap;html=1;comic=1;fontFamily=Comic Sans MS;fillColor=#eeeeee;strokeColor=#36393d;fontSize=14;" vertex="1" parent="1">
          <mxGeometry x="880" y="1330" width="159.75" height="40" as="geometry" />
        </mxCell>
        <mxCell id="lqEn4sDh2R0uTmOwmhzk-68" value="&lt;font style=&quot;font-size: 14px;&quot;&gt;item.put&lt;/font&gt;" style="rounded=1;whiteSpace=wrap;html=1;comic=1;fontFamily=Comic Sans MS;fillColor=#eeeeee;strokeColor=#36393d;fontSize=14;" vertex="1" parent="1">
          <mxGeometry x="880.13" y="1390" width="159.75" height="30" as="geometry" />
        </mxCell>
        <mxCell id="lqEn4sDh2R0uTmOwmhzk-69" value="" style="rounded=1;whiteSpace=wrap;html=1;comic=1;fontFamily=Comic Sans MS;fontSize=14;" vertex="1" parent="1">
          <mxGeometry x="880" y="1440" width="290" height="91" as="geometry" />
        </mxCell>
        <mxCell id="lqEn4sDh2R0uTmOwmhzk-70" value="mDataBufferList" style="text;html=1;align=center;verticalAlign=middle;resizable=0;points=[];autosize=1;strokeColor=none;fillColor=none;fontSize=14;fontFamily=Comic Sans MS;" vertex="1" parent="1">
          <mxGeometry x="880" y="1440" width="140" height="30" as="geometry" />
        </mxCell>
        <mxCell id="lqEn4sDh2R0uTmOwmhzk-71" style="edgeStyle=orthogonalEdgeStyle;rounded=0;orthogonalLoop=1;jettySize=auto;html=1;exitX=1;exitY=0.5;exitDx=0;exitDy=0;entryX=0;entryY=0.5;entryDx=0;entryDy=0;fontFamily=Comic Sans MS;fontSize=12;endArrow=classic;endFill=1;" edge="1" parent="1" source="lqEn4sDh2R0uTmOwmhzk-72" target="lqEn4sDh2R0uTmOwmhzk-75">
          <mxGeometry relative="1" as="geometry" />
        </mxCell>
        <mxCell id="lqEn4sDh2R0uTmOwmhzk-72" value="&lt;font style=&quot;font-size: 12px;&quot;&gt;buffer&lt;/font&gt;" style="rounded=0;whiteSpace=wrap;html=1;comic=1;fontFamily=Comic Sans MS;fontSize=14;" vertex="1" parent="1">
          <mxGeometry x="890" y="1472" width="60" height="30" as="geometry" />
        </mxCell>
        <mxCell id="lqEn4sDh2R0uTmOwmhzk-73" value="ListEntry" style="text;html=1;align=center;verticalAlign=middle;resizable=0;points=[];autosize=1;strokeColor=none;fillColor=none;fontSize=12;fontFamily=Comic Sans MS;" vertex="1" parent="1">
          <mxGeometry x="880.13" y="1500" width="80" height="30" as="geometry" />
        </mxCell>
        <mxCell id="lqEn4sDh2R0uTmOwmhzk-74" style="edgeStyle=orthogonalEdgeStyle;rounded=0;orthogonalLoop=1;jettySize=auto;html=1;exitX=1;exitY=0.5;exitDx=0;exitDy=0;entryX=-0.002;entryY=0.593;entryDx=0;entryDy=0;entryPerimeter=0;fontFamily=Comic Sans MS;fontSize=12;endArrow=classic;endFill=1;" edge="1" parent="1" source="lqEn4sDh2R0uTmOwmhzk-75" target="lqEn4sDh2R0uTmOwmhzk-78">
          <mxGeometry relative="1" as="geometry" />
        </mxCell>
        <mxCell id="lqEn4sDh2R0uTmOwmhzk-75" value="&lt;font style=&quot;font-size: 12px;&quot;&gt;buffer&lt;/font&gt;" style="rounded=0;whiteSpace=wrap;html=1;comic=1;fontFamily=Comic Sans MS;fontSize=14;" vertex="1" parent="1">
          <mxGeometry x="979.87" y="1472" width="60" height="30" as="geometry" />
        </mxCell>
        <mxCell id="lqEn4sDh2R0uTmOwmhzk-76" value="ListEntry" style="text;html=1;align=center;verticalAlign=middle;resizable=0;points=[];autosize=1;strokeColor=none;fillColor=none;fontSize=12;fontFamily=Comic Sans MS;" vertex="1" parent="1">
          <mxGeometry x="970" y="1500" width="80" height="30" as="geometry" />
        </mxCell>
        <mxCell id="lqEn4sDh2R0uTmOwmhzk-77" style="edgeStyle=orthogonalEdgeStyle;rounded=0;orthogonalLoop=1;jettySize=auto;html=1;exitX=1;exitY=0.5;exitDx=0;exitDy=0;entryX=0.966;entryY=0.495;entryDx=0;entryDy=0;entryPerimeter=0;fontFamily=Comic Sans MS;fontSize=12;endArrow=classic;endFill=1;" edge="1" parent="1" source="lqEn4sDh2R0uTmOwmhzk-78" target="lqEn4sDh2R0uTmOwmhzk-69">
          <mxGeometry relative="1" as="geometry" />
        </mxCell>
        <mxCell id="lqEn4sDh2R0uTmOwmhzk-78" value="&lt;font style=&quot;font-size: 12px;&quot;&gt;buffer&lt;/font&gt;" style="rounded=0;whiteSpace=wrap;html=1;comic=1;fontFamily=Comic Sans MS;fontSize=14;" vertex="1" parent="1">
          <mxGeometry x="1069.87" y="1470" width="60" height="30" as="geometry" />
        </mxCell>
        <mxCell id="lqEn4sDh2R0uTmOwmhzk-79" value="ListEntry" style="text;html=1;align=center;verticalAlign=middle;resizable=0;points=[];autosize=1;strokeColor=none;fillColor=none;fontSize=12;fontFamily=Comic Sans MS;" vertex="1" parent="1">
          <mxGeometry x="1060" y="1498" width="80" height="30" as="geometry" />
        </mxCell>
        <mxCell id="lqEn4sDh2R0uTmOwmhzk-80" style="edgeStyle=orthogonalEdgeStyle;rounded=0;orthogonalLoop=1;jettySize=auto;html=1;exitX=0.5;exitY=1;exitDx=0;exitDy=0;fontFamily=Comic Sans MS;fontSize=12;endArrow=classic;endFill=1;" edge="1" parent="1" source="lqEn4sDh2R0uTmOwmhzk-68">
          <mxGeometry relative="1" as="geometry">
            <mxPoint x="1150" y="1480" as="targetPoint" />
            <Array as="points">
              <mxPoint x="960" y="1430" />
              <mxPoint x="1150" y="1430" />
            </Array>
          </mxGeometry>
        </mxCell>
        <mxCell id="lqEn4sDh2R0uTmOwmhzk-81" value="UtteranceSpeechItem" style="text;html=1;align=center;verticalAlign=middle;resizable=0;points=[];autosize=1;strokeColor=none;fillColor=none;fontFamily=Comic Sans MS;fontSize=16;" vertex="1" parent="1">
          <mxGeometry x="589.87" y="1610" width="190" height="30" as="geometry" />
        </mxCell>
        <mxCell id="lqEn4sDh2R0uTmOwmhzk-82" style="edgeStyle=orthogonalEdgeStyle;rounded=0;orthogonalLoop=1;jettySize=auto;html=1;exitX=0.5;exitY=1;exitDx=0;exitDy=0;fontFamily=Comic Sans MS;fontSize=14;endArrow=classic;endFill=1;" edge="1" parent="1" source="lqEn4sDh2R0uTmOwmhzk-83" target="lqEn4sDh2R0uTmOwmhzk-86">
          <mxGeometry relative="1" as="geometry" />
        </mxCell>
        <mxCell id="lqEn4sDh2R0uTmOwmhzk-83" value="&lt;font style=&quot;font-size: 14px;&quot;&gt;dispatchOnAudioAvailable&lt;/font&gt;" style="rounded=1;whiteSpace=wrap;html=1;comic=1;fontFamily=Comic Sans MS;fillColor=#b0e3e6;strokeColor=#0e8088;fontSize=14;" vertex="1" parent="1">
          <mxGeometry x="589.75" y="1642" width="180" height="30" as="geometry" />
        </mxCell>
        <mxCell id="lqEn4sDh2R0uTmOwmhzk-84" style="edgeStyle=orthogonalEdgeStyle;rounded=0;orthogonalLoop=1;jettySize=auto;html=1;exitX=0.5;exitY=1;exitDx=0;exitDy=0;entryX=1;entryY=0.5;entryDx=0;entryDy=0;fontFamily=Comic Sans MS;fontSize=14;endArrow=classic;endFill=1;" edge="1" parent="1" source="lqEn4sDh2R0uTmOwmhzk-85" target="lqEn4sDh2R0uTmOwmhzk-39">
          <mxGeometry relative="1" as="geometry" />
        </mxCell>
        <mxCell id="lqEn4sDh2R0uTmOwmhzk-85" value="&lt;font style=&quot;font-size: 14px;&quot;&gt;dispatchOnAudioAvailable&lt;/font&gt;" style="rounded=1;whiteSpace=wrap;html=1;comic=1;fontFamily=Comic Sans MS;fillColor=#b0e3e6;strokeColor=#0e8088;fontSize=14;" vertex="1" parent="1">
          <mxGeometry x="584.88" y="1762" width="180" height="30" as="geometry" />
        </mxCell>
        <mxCell id="lqEn4sDh2R0uTmOwmhzk-86" value="CallbackMap" style="text;html=1;align=center;verticalAlign=middle;resizable=0;points=[];autosize=1;strokeColor=none;fillColor=none;fontFamily=Comic Sans MS;fontSize=16;" vertex="1" parent="1">
          <mxGeometry x="620" y="1730" width="120" height="30" as="geometry" />
        </mxCell>
        <mxCell id="lqEn4sDh2R0uTmOwmhzk-87" value="" style="rounded=1;whiteSpace=wrap;html=1;comic=1;fontFamily=Comic Sans MS;fontSize=14;" vertex="1" parent="1">
          <mxGeometry x="880.0000000000001" y="1599" width="290" height="91" as="geometry" />
        </mxCell>
        <mxCell id="lqEn4sDh2R0uTmOwmhzk-88" value="LinkedBlockingQueue" style="text;html=1;align=center;verticalAlign=middle;resizable=0;points=[];autosize=1;strokeColor=none;fillColor=none;fontSize=14;fontFamily=Comic Sans MS;" vertex="1" parent="1">
          <mxGeometry x="870.0000000000001" y="1599" width="160" height="30" as="geometry" />
        </mxCell>
        <mxCell id="lqEn4sDh2R0uTmOwmhzk-89" style="edgeStyle=orthogonalEdgeStyle;rounded=0;orthogonalLoop=1;jettySize=auto;html=1;exitX=1;exitY=0.5;exitDx=0;exitDy=0;entryX=0;entryY=0.5;entryDx=0;entryDy=0;fontFamily=Comic Sans MS;fontSize=12;endArrow=classic;endFill=1;" edge="1" parent="1" source="lqEn4sDh2R0uTmOwmhzk-90" target="lqEn4sDh2R0uTmOwmhzk-93">
          <mxGeometry relative="1" as="geometry">
            <mxPoint x="979.87" y="1646" as="targetPoint" />
          </mxGeometry>
        </mxCell>
        <mxCell id="lqEn4sDh2R0uTmOwmhzk-90" value="&lt;span style=&quot;font-size: 12px;&quot;&gt;item&lt;/span&gt;" style="rounded=0;whiteSpace=wrap;html=1;comic=1;fontFamily=Comic Sans MS;fontSize=14;" vertex="1" parent="1">
          <mxGeometry x="890.0000000000001" y="1631" width="60" height="30" as="geometry" />
        </mxCell>
        <mxCell id="lqEn4sDh2R0uTmOwmhzk-91" value="playbackQueueItem" style="text;html=1;align=center;verticalAlign=middle;resizable=0;points=[];autosize=1;strokeColor=none;fillColor=none;fontSize=12;fontFamily=Comic Sans MS;" vertex="1" parent="1">
          <mxGeometry x="869.9899999999999" y="1659" width="140" height="30" as="geometry" />
        </mxCell>
        <mxCell id="lqEn4sDh2R0uTmOwmhzk-92" style="edgeStyle=orthogonalEdgeStyle;rounded=0;orthogonalLoop=1;jettySize=auto;html=1;exitX=1;exitY=0.5;exitDx=0;exitDy=0;entryX=0.966;entryY=0.495;entryDx=0;entryDy=0;entryPerimeter=0;fontFamily=Comic Sans MS;fontSize=12;endArrow=classic;endFill=1;" edge="1" parent="1" source="lqEn4sDh2R0uTmOwmhzk-93">
          <mxGeometry relative="1" as="geometry">
            <mxPoint x="1110.2599999999998" y="1646.045" as="targetPoint" />
          </mxGeometry>
        </mxCell>
        <mxCell id="lqEn4sDh2R0uTmOwmhzk-93" value="&lt;font style=&quot;font-size: 12px;&quot;&gt;buffer&lt;/font&gt;" style="rounded=0;whiteSpace=wrap;html=1;comic=1;fontFamily=Comic Sans MS;fontSize=14;" vertex="1" parent="1">
          <mxGeometry x="1019.9899999999999" y="1631" width="60" height="30" as="geometry" />
        </mxCell>
        <mxCell id="lqEn4sDh2R0uTmOwmhzk-94" value="playbackQueueItem" style="text;html=1;align=center;verticalAlign=middle;resizable=0;points=[];autosize=1;strokeColor=none;fillColor=none;fontSize=12;fontFamily=Comic Sans MS;" vertex="1" parent="1">
          <mxGeometry x="990.12" y="1659" width="140" height="30" as="geometry" />
        </mxCell>
        <mxCell id="lqEn4sDh2R0uTmOwmhzk-96" style="edgeStyle=orthogonalEdgeStyle;rounded=0;orthogonalLoop=1;jettySize=auto;html=1;exitX=1;exitY=0.5;exitDx=0;exitDy=0;fontFamily=Comic Sans MS;fontSize=14;endArrow=classic;endFill=1;" edge="1" parent="1" source="lqEn4sDh2R0uTmOwmhzk-62">
          <mxGeometry relative="1" as="geometry">
            <mxPoint x="1030" y="1330" as="targetPoint" />
            <Array as="points">
              <mxPoint x="1030" y="1258" />
              <mxPoint x="1030" y="1330" />
            </Array>
          </mxGeometry>
        </mxCell>
        <mxCell id="lqEn4sDh2R0uTmOwmhzk-97" style="edgeStyle=orthogonalEdgeStyle;rounded=0;orthogonalLoop=1;jettySize=auto;html=1;exitX=0;exitY=0.5;exitDx=0;exitDy=0;entryX=0.999;entryY=0.556;entryDx=0;entryDy=0;entryPerimeter=0;fontFamily=Comic Sans MS;fontSize=14;endArrow=classic;endFill=1;" edge="1" parent="1" source="lqEn4sDh2R0uTmOwmhzk-67" target="lqEn4sDh2R0uTmOwmhzk-81">
          <mxGeometry relative="1" as="geometry">
            <Array as="points">
              <mxPoint x="860" y="1350" />
              <mxPoint x="860" y="1627" />
            </Array>
          </mxGeometry>
        </mxCell>
        <mxCell id="lqEn4sDh2R0uTmOwmhzk-98" style="edgeStyle=orthogonalEdgeStyle;rounded=0;orthogonalLoop=1;jettySize=auto;html=1;exitX=0;exitY=0.5;exitDx=0;exitDy=0;entryX=1;entryY=0.5;entryDx=0;entryDy=0;fontFamily=Comic Sans MS;fontSize=14;endArrow=classic;endFill=1;" edge="1" parent="1" source="lqEn4sDh2R0uTmOwmhzk-40" target="lqEn4sDh2R0uTmOwmhzk-5">
          <mxGeometry relative="1" as="geometry">
            <Array as="points">
              <mxPoint x="260" y="1990" />
              <mxPoint x="260" y="1360" />
            </Array>
          </mxGeometry>
        </mxCell>
        <mxCell id="lqEn4sDh2R0uTmOwmhzk-99" style="edgeStyle=orthogonalEdgeStyle;rounded=0;orthogonalLoop=1;jettySize=auto;html=1;exitX=1;exitY=0.5;exitDx=0;exitDy=0;entryX=1;entryY=0.5;entryDx=0;entryDy=0;" edge="1" parent="1" source="lqEn4sDh2R0uTmOwmhzk-60" target="lqEn4sDh2R0uTmOwmhzk-87">
          <mxGeometry relative="1" as="geometry">
            <Array as="points">
              <mxPoint x="1180" y="1223" />
              <mxPoint x="1180" y="1645" />
            </Array>
          </mxGeometry>
        </mxCell>
      </root>
    </mxGraphModel>
  </diagram>
</mxfile>
